<svg width="66" height="33" viewBox="0 0 66 33" fill="none" xmlns="http://www.w3.org/2000/svg">
<path d="M3.472 25H0.88V0.196H3.472V25ZM16.6272 25.54C13.8192 25.54 11.7312 24.712 10.3632 23.056C9.01919 21.376 8.34719 19.048 8.34719 16.072C8.34719 12.952 9.05519 10.612 10.4712 9.052C11.9112 7.492 13.9392 6.712 16.5552 6.712C18.4992 6.712 20.0832 7.108 21.3072 7.9C22.5312 8.668 23.4312 9.76 24.0072 11.176C24.5832 12.568 24.8712 14.2 24.8712 16.072C24.8712 19.024 24.1512 21.34 22.7112 23.02C21.2952 24.7 19.2672 25.54 16.6272 25.54ZM16.5912 23.164C18.0552 23.164 19.1952 22.852 20.0112 22.228C20.8272 21.58 21.4032 20.728 21.7392 19.672C22.0992 18.592 22.2792 17.392 22.2792 16.072C22.2792 14.656 22.0992 13.432 21.7392 12.4C21.3792 11.344 20.7792 10.528 19.9392 9.952C19.1232 9.376 18.0072 9.088 16.5912 9.088C15.1512 9.088 14.0232 9.4 13.2072 10.024C12.3912 10.648 11.8032 11.488 11.4432 12.544C11.1072 13.576 10.9392 14.752 10.9392 16.072C10.9392 18.184 11.3592 19.9 12.1992 21.22C13.0392 22.516 14.5032 23.164 16.5912 23.164ZM37.0513 25.54C35.2033 25.54 33.6673 25.18 32.4433 24.46C31.2433 23.716 30.3433 22.672 29.7433 21.328C29.1433 19.96 28.8433 18.352 28.8433 16.504C28.8433 14.44 29.1193 12.772 29.6713 11.5C30.2233 10.204 30.9313 9.22 31.7953 8.548C32.6833 7.852 33.6433 7.384 34.6753 7.144C35.7313 6.88 36.7513 6.748 37.7353 6.748C38.8633 6.748 39.9313 6.904 40.9393 7.216C41.9713 7.504 42.8113 7.972 43.4593 8.62C44.1313 9.268 44.4673 10.132 44.4673 11.212V25.756C44.4673 26.476 44.3593 27.208 44.1433 27.952C43.9273 28.696 43.5313 29.38 42.9553 30.004C42.4033 30.652 41.6113 31.168 40.5793 31.552C39.5713 31.936 38.2633 32.128 36.6553 32.128C35.6233 32.128 34.6753 32.032 33.8113 31.84C32.9473 31.648 32.1913 31.468 31.5433 31.3V28.852C31.9273 28.948 32.3593 29.056 32.8393 29.176C33.3433 29.32 33.8833 29.44 34.4593 29.536C35.0593 29.632 35.6953 29.68 36.3673 29.68C37.9993 29.68 39.1993 29.476 39.9673 29.068C40.7593 28.684 41.2753 28.192 41.5153 27.592C41.7553 27.016 41.8753 26.428 41.8753 25.828V23.2L42.7753 24.1C42.3193 24.34 41.7433 24.568 41.0473 24.784C40.3513 25 39.6433 25.18 38.9233 25.324C38.2033 25.468 37.5793 25.54 37.0513 25.54ZM37.0513 23.164C37.8193 23.164 38.6233 23.068 39.4633 22.876C40.3273 22.66 41.1313 22.336 41.8753 21.904V11.572C41.8753 10.9 41.6833 10.396 41.2993 10.06C40.9393 9.7 40.4473 9.46 39.8233 9.34C39.1993 9.196 38.5273 9.124 37.8073 9.124C36.0553 9.124 34.7353 9.472 33.8473 10.168C32.9593 10.84 32.3593 11.74 32.0473 12.868C31.7353 13.996 31.5793 15.208 31.5793 16.504C31.5793 18.472 31.9993 20.08 32.8393 21.328C33.6793 22.552 35.0833 23.164 37.0513 23.164ZM57.6194 25.54C54.8114 25.54 52.7234 24.712 51.3554 23.056C50.0114 21.376 49.3394 19.048 49.3394 16.072C49.3394 12.952 50.0474 10.612 51.4634 9.052C52.9034 7.492 54.9314 6.712 57.5474 6.712C59.4914 6.712 61.0754 7.108 62.2994 7.9C63.5234 8.668 64.4234 9.76 64.9994 11.176C65.5754 12.568 65.8634 14.2 65.8634 16.072C65.8634 19.024 65.1434 21.34 63.7034 23.02C62.2874 24.7 60.2594 25.54 57.6194 25.54ZM57.5834 23.164C59.0474 23.164 60.1874 22.852 61.0034 22.228C61.8194 21.58 62.3954 20.728 62.7314 19.672C63.0914 18.592 63.2714 17.392 63.2714 16.072C63.2714 14.656 63.0914 13.432 62.7314 12.4C62.3714 11.344 61.7714 10.528 60.9314 9.952C60.1154 9.376 58.9994 9.088 57.5834 9.088C56.1434 9.088 55.0154 9.4 54.1994 10.024C53.3834 10.648 52.7954 11.488 52.4354 12.544C52.0994 13.576 51.9314 14.752 51.9314 16.072C51.9314 18.184 52.3514 19.9 53.1914 21.22C54.0314 22.516 55.4954 23.164 57.5834 23.164Z" fill="#3E4D31"/>
</svg>
